<?xml version="1.0" encoding="UTF-8" standalone="no"?>
<svg
   xmlns:dc="http://purl.org/dc/elements/1.1/"
   xmlns:cc="http://creativecommons.org/ns#"
   xmlns:rdf="http://www.w3.org/1999/02/22-rdf-syntax-ns#"
   xmlns:svg="http://www.w3.org/2000/svg"
   xmlns="http://www.w3.org/2000/svg"
   xmlns:sodipodi="http://sodipodi.sourceforge.net/DTD/sodipodi-0.dtd"
   xmlns:inkscape="http://www.inkscape.org/namespaces/inkscape"
   inkscape:version="1.0 (4035a4fb49, 2020-05-01)"
   height="66.875099"
   width="330"
   sodipodi:docname="IAA Mobility 2021 logo.svg"
   version="1.1"
   id="logo"
   viewBox="0 0 330 66.875098">
  <metadata
     id="metadata9">
    <rdf:RDF>
      <cc:Work
         rdf:about="">
        <dc:format>image/svg+xml</dc:format>
        <dc:type
           rdf:resource="http://purl.org/dc/dcmitype/StillImage" />
        <dc:title></dc:title>
      </cc:Work>
    </rdf:RDF>
  </metadata>
  <defs
     id="defs7" />
  <sodipodi:namedview
     inkscape:current-layer="logo"
     inkscape:window-maximized="1"
     inkscape:window-y="-9"
     inkscape:window-x="79"
     inkscape:cy="33.43755"
     inkscape:cx="165"
     inkscape:zoom="5.2944444"
     fit-margin-bottom="15"
     fit-margin-right="15"
     fit-margin-left="15"
     fit-margin-top="15"
     showgrid="false"
     id="namedview5"
     inkscape:window-height="1411"
     inkscape:window-width="2472"
     inkscape:pageshadow="2"
     inkscape:pageopacity="0"
     guidetolerance="10"
     gridtolerance="10"
     objecttolerance="10"
     borderopacity="1"
     bordercolor="#666666"
     pagecolor="#ffffff" />
  <path
     style="stroke-width:1.07914"
     sodipodi:nodetypes="cccccccccccccccssccscccccccsccccssscscssssscssccssssssccssscccccsccssssscsssccscscccccccccccccccccccccccccccccccccccccccccccccccccccccccccccccccccccccccccccccccccc"
     id="path2"
     d="m 144.57842,15.649562 v 35.683812 h -5.93741 V 29.175461 l -8.76259,22.157913 h -5.75828 L 115.39317,29.318986 V 51.333374 H 109.6705 V 15.649562 h 5.72267 l 11.62446,28.597122 11.62338,-28.597122 z m 20.60072,-0.647482 c 2.53921,0 4.86367,0.467266 6.97446,1.367266 2.11079,0.9 3.93345,2.193885 5.43561,3.84928 1.50216,1.655396 2.68273,3.596763 3.54065,5.827338 0.85899,2.266187 1.25179,4.71259 1.25179,7.373741 0.0356,2.62554 -0.35719,5.107554 -1.21618,7.373741 -0.859,2.266187 -2.03849,4.244245 -3.54065,5.899641 -1.5307,1.655922 -3.39556,2.967948 -5.47122,3.84928 -2.11079,0.935612 -4.43525,1.367266 -6.97446,1.330576 -2.53921,0.03561 -4.86475,-0.431655 -6.97446,-1.330576 -2.06169,-0.906844 -3.92201,-2.215416 -5.47231,-3.84928 -1.53777,-1.654317 -2.68273,-3.596763 -3.54064,-5.86295 -0.82231,-2.266187 -1.21619,-4.71259 -1.18058,-7.373741 -0.0356,-2.62554 0.35827,-5.107554 1.21619,-7.373741 0.85791,-2.266187 2.03849,-4.244245 3.54065,-5.89964 1.53777,-1.654317 3.32589,-2.949281 5.43669,-3.849281 2.20713,-0.923241 4.58244,-1.376399 6.97446,-1.330575 z m 0.0712,31.006834 c 1.64568,0 3.14784,-0.288129 4.47086,-0.863309 1.32302,-0.57518 2.46799,-1.43849 3.39713,-2.554317 0.92913,-1.115827 1.68129,-2.446403 2.18201,-3.992806 0.53633,-1.546402 0.78669,-3.273021 0.78669,-5.144244 0,-1.906835 -0.25036,-3.596763 -0.78669,-5.144245 -0.50072,-1.546403 -1.2518,-2.878057 -2.18201,-3.957194 -0.93022,-1.079137 -2.07411,-1.942446 -3.39713,-2.517626 -1.32302,-0.57518 -2.82518,-0.863309 -4.47086,-0.863309 -1.64568,0 -3.14784,0.288129 -4.47086,0.863309 -1.32303,0.57518 -2.46799,1.438489 -3.39713,2.517626 -0.92913,1.079137 -1.68129,2.409712 -2.18201,3.957194 -0.53633,1.546403 -0.78669,3.273022 -0.78669,5.144245 0,1.906834 0.25036,3.596762 0.75108,5.144244 0.50072,1.547482 1.21619,2.878058 2.18093,3.992806 0.93022,1.114748 2.07518,1.942446 3.43382,2.554317 1.32302,0.57518 2.82518,0.863309 4.47086,0.863309 z m 46.45899,-4.065108 c 0,1.47518 -0.25036,2.770144 -0.78669,3.957194 -0.53633,1.187051 -1.32302,2.158274 -2.32446,2.949281 -1.00144,0.791007 -2.21762,1.402878 -3.61295,1.834532 -1.39532,0.431655 -2.96762,0.647482 -4.72014,0.647482 H 185.81547 V 15.686252 h 14.34172 c 1.71691,0 3.25468,0.251439 4.61439,0.719784 1.35971,0.468346 2.5036,1.114749 3.46835,1.978058 0.96475,0.863309 1.68129,1.870144 2.21762,3.057194 0.52115,1.241267 0.78864,2.574274 0.78669,3.920504 0,1.942446 -0.42841,3.633453 -1.32302,4.99964 -0.85977,1.366428 -2.08677,2.463284 -3.54064,3.165108 1.57338,0.755396 2.82518,1.834532 3.82661,3.273022 1.03705,1.438489 1.50216,3.165107 1.50216,5.144244 z M 191.78849,20.865029 v 10.359712 h 7.93921 c 1.86043,0 3.25467,-0.503956 4.2205,-1.475179 0.96583,-0.971223 1.43094,-2.193885 1.43094,-3.669065 0,-1.47518 -0.50072,-2.697842 -1.46655,-3.704676 -0.96583,-1.006835 -2.39568,-1.510792 -4.2205,-1.510792 z m 14.02014,20.253238 c 0,-1.583094 -0.50072,-2.878058 -1.53777,-3.81259 -1.03705,-0.934533 -2.39676,-1.402878 -4.14928,-1.402878 h -8.29748 v 10.28741 h 8.29748 c 1.75252,0 3.14784,-0.431655 4.14928,-1.330576 1.00144,-0.935611 1.53777,-2.158273 1.53777,-3.741366 z m 9.22662,-25.467626 h 6.04533 v 35.683813 h -6.04533 V 15.649562 Z m 30.25792,30.251439 v 5.431294 H 224.94281 V 15.649562 h 6.11546 v 30.288129 h 14.2349 z m 3.14784,-30.251439 h 6.04424 v 35.683813 h -6.04424 V 15.649562 Z m 35.29964,5.719424 h -10.15684 v 29.964389 h -6.04424 V 21.368986 h -10.15792 v -5.719424 h 26.359 v 5.719424 z m 7.86906,-5.719424 8.40432,15.503957 8.40539,-15.503957 H 315 l -12.01727,21.366906 v 14.316907 h -6.07985 V 37.017547 L 284.81439,15.650641 Z M 15,51.370065 h 5.722662 V 15.650641 H 15 Z M 40.643525,23.636252 45.721942,38.096684 H 35.492806 Z M 37.710432,15.650641 24.870863,51.370065 h 5.793885 l 2.933094,-8.201439 h 13.984532 l 2.897482,8.201439 h 5.93741 L 53.448561,43.168626 H 60.10036 L 58.383453,38.096684 H 51.623741 L 43.541007,15.650641 h -5.829496 z m 39.448921,7.985611 5.078417,14.460432 H 72.008633 l 5.14964,-14.460432 z M 74.226259,15.650641 61.38777,51.370065 h 5.793885 l 2.933093,-8.201439 h 13.984533 l 2.897479,8.201439 h 5.93741 l -2.9687,-8.201439 h 6.65288 L 94.90144,38.096684 H 88.14173 L 80.023381,15.650641 h -5.793885 z" />
</svg>
